<mxfile host="app.diagrams.net" modified="2021-04-24T08:49:25.264Z" agent="5.0 (Windows NT 10.0; Win64; x64) AppleWebKit/537.36 (KHTML, like Gecko) Chrome/90.0.4430.72 Safari/537.36 Edg/90.0.818.42" etag="scd9NGaxaYU9MB7-vjpQ" version="14.6.6" type="github">
  <diagram id="D8NKPkmcu6wGCr2dgx6K" name="Page-1">
    <mxGraphModel dx="942" dy="624" grid="1" gridSize="10" guides="1" tooltips="1" connect="1" arrows="1" fold="1" page="1" pageScale="1" pageWidth="827" pageHeight="1169" math="0" shadow="0">
      <root>
        <mxCell id="0" />
        <mxCell id="1" parent="0" />
        <mxCell id="2i0SkZTzkGKYEWNCyZpg-1" value="" style="shape=cube;whiteSpace=wrap;html=1;boundedLbl=1;backgroundOutline=1;darkOpacity=0.05;darkOpacity2=0.1;" vertex="1" parent="1">
          <mxGeometry x="160" y="200" width="40" height="190" as="geometry" />
        </mxCell>
        <mxCell id="2i0SkZTzkGKYEWNCyZpg-2" value="images" style="whiteSpace=wrap;html=1;aspect=fixed;" vertex="1" parent="1">
          <mxGeometry x="20" y="255" width="80" height="80" as="geometry" />
        </mxCell>
        <mxCell id="2i0SkZTzkGKYEWNCyZpg-3" value="" style="endArrow=classic;html=1;" edge="1" parent="1" source="2i0SkZTzkGKYEWNCyZpg-2" target="2i0SkZTzkGKYEWNCyZpg-1">
          <mxGeometry width="50" height="50" relative="1" as="geometry">
            <mxPoint x="110" y="350" as="sourcePoint" />
            <mxPoint x="160" y="300" as="targetPoint" />
          </mxGeometry>
        </mxCell>
        <mxCell id="2i0SkZTzkGKYEWNCyZpg-4" value="" style="shape=cube;whiteSpace=wrap;html=1;boundedLbl=1;backgroundOutline=1;darkOpacity=0.05;darkOpacity2=0.1;" vertex="1" parent="1">
          <mxGeometry x="280" y="200" width="40" height="190" as="geometry" />
        </mxCell>
      </root>
    </mxGraphModel>
  </diagram>
</mxfile>
